<svg width="16" height="16" viewBox="0 0 16 16" fill="none" xmlns="http://www.w3.org/2000/svg">
<g clip-path="url(#clip0_826936_52)">
<path d="M15.6577 4.463C15.6222 3.658 15.492 3.10457 15.3055 2.62501C15.1132 2.11597 14.8172 1.66024 14.4294 1.28138C14.0506 0.896623 13.5918 0.597652 13.0887 0.408281C12.6064 0.2218 12.0558 0.0916213 11.2508 0.0561286C10.4398 0.0176301 10.1824 0.00872803 8.1254 0.00872803C6.06845 0.00872803 5.81098 0.0176301 5.00297 0.0531228C4.19797 0.0886154 3.64454 0.218909 3.1651 0.405275C2.65595 0.597652 2.20021 0.893617 1.82135 1.28138C1.4366 1.66024 1.13774 2.11898 0.948258 2.62212C0.761777 3.10457 0.631599 3.65499 0.596107 4.45999C0.557608 5.27101 0.548706 5.52847 0.548706 7.58543C0.548706 9.64239 0.557608 9.89985 0.593101 10.7079C0.628593 11.5129 0.758887 12.0663 0.945368 12.5458C1.13774 13.0549 1.4366 13.5106 1.82135 13.8895C2.20021 14.2742 2.65896 14.5732 3.1621 14.7626C3.64454 14.9491 4.19497 15.0792 5.00008 15.1147C5.80797 15.1503 6.06556 15.1591 8.12251 15.1591C10.1795 15.1591 10.4369 15.1503 11.2449 15.1147C12.0499 15.0792 12.6034 14.9491 13.0828 14.7626C14.101 14.3689 14.906 13.5639 15.2997 12.5458C15.486 12.0634 15.6163 11.5129 15.6518 10.7079C15.6873 9.89985 15.6962 9.64239 15.6962 7.58543C15.6962 5.52847 15.6932 5.27101 15.6577 4.463ZM14.2934 10.6487C14.2608 11.3886 14.1365 11.7881 14.0329 12.0545C13.7783 12.7145 13.2545 13.2384 12.5945 13.4929C12.3281 13.5965 11.9257 13.7208 11.1886 13.7533C10.3895 13.7889 10.1499 13.7977 8.12841 13.7977C6.10694 13.7977 5.86428 13.7889 5.06806 13.7533C4.32815 13.7208 3.9286 13.5965 3.66223 13.4929C3.33378 13.3715 3.03481 13.1792 2.79214 12.9276C2.54057 12.6819 2.34819 12.386 2.2268 12.0575C2.12321 11.7911 1.99893 11.3886 1.96645 10.6517C1.93084 9.85257 1.92205 9.61279 1.92205 7.59133C1.92205 5.56986 1.93084 5.32719 1.96645 4.53109C1.99893 3.79118 2.12321 3.39163 2.2268 3.12526C2.34819 2.79669 2.54057 2.49784 2.79515 2.25506C3.0407 2.00349 3.33667 1.81111 3.66524 1.68983C3.9316 1.58624 4.33416 1.46196 5.07107 1.42936C5.87017 1.39387 6.10995 1.38496 8.1313 1.38496C10.1558 1.38496 10.3954 1.39387 11.1916 1.42936C11.9316 1.46196 12.3311 1.58624 12.5975 1.68983C12.9259 1.81111 13.2249 2.00349 13.4676 2.25506C13.7191 2.50073 13.9115 2.79669 14.0329 3.12526C14.1365 3.39163 14.2608 3.79407 14.2934 4.53109C14.3289 5.3302 14.3378 5.56986 14.3378 7.59133C14.3378 9.61279 14.3289 9.84956 14.2934 10.6487Z" fill="#F4F4FD"/>
<path d="M8.12546 3.69348C5.97682 3.69348 4.23352 5.43667 4.23352 7.58542C4.23352 9.73417 5.97682 11.4774 8.12546 11.4774C10.2742 11.4774 12.0174 9.73417 12.0174 7.58542C12.0174 5.43667 10.2742 3.69348 8.12546 3.69348ZM8.12546 10.11C6.73153 10.11 5.60086 8.97946 5.60086 7.58542C5.60086 6.19138 6.73153 5.06082 8.12546 5.06082C9.5195 5.06082 10.6501 6.19138 10.6501 7.58542C10.6501 8.97946 9.5195 10.11 8.12546 10.11V10.11Z" fill="#F4F4FD"/>
<path d="M13.08 3.53963C13.08 4.04139 12.6732 4.44823 12.1713 4.44823C11.6695 4.44823 11.2627 4.04139 11.2627 3.53963C11.2627 3.03776 11.6695 2.63104 12.1713 2.63104C12.6732 2.63104 13.08 3.03776 13.08 3.53963V3.53963Z" fill="#F4F4FD"/>
</g>
<defs>
<clipPath id="clip0_826936_52">
<rect width="15.1504" height="15.1504" fill="white" transform="translate(0.522095 0.00872803)"/>
</clipPath>
</defs>
</svg>
