<svg width="16" height="16" viewBox="0 0 16 16" fill="none" xmlns="http://www.w3.org/2000/svg">
<g clip-path="url(#clip0_826936_68)">
<path d="M15.4741 15.1593V15.1586H15.4779V9.6022C15.4779 6.88396 14.8927 4.79004 11.7149 4.79004C10.1873 4.79004 9.16208 5.62836 8.74355 6.42313H8.69936V5.04381H5.68631V15.1586H8.82372V10.1501C8.82372 8.83142 9.0737 7.55626 10.7068 7.55626C12.3159 7.55626 12.3399 9.0612 12.3399 10.2347V15.1593H15.4741Z" fill="#F4F4FD"/>
<path d="M0.577454 5.04437H3.71865V15.1592H0.577454V5.04437Z" fill="#F4F4FD"/>
<path d="M2.14677 0.00872803C1.14242 0.00872803 0.327454 0.823696 0.327454 1.82804C0.327454 2.83239 1.14242 3.6644 2.14677 3.6644C3.15112 3.6644 3.96608 2.83239 3.96608 1.82804C3.96545 0.823696 3.15049 0.00872803 2.14677 0.00872803V0.00872803Z" fill="#F4F4FD"/>
</g>
<defs>
<clipPath id="clip0_826936_68">
<rect width="15.1504" height="15.1504" fill="white" transform="translate(0.327454 0.00872803)"/>
</clipPath>
</defs>
</svg>
