<svg width="16" height="16" viewBox="0 0 16 16" fill="none" xmlns="http://www.w3.org/2000/svg">
<g clip-path="url(#clip0_826936_58)">
<path d="M15.2743 2.88642C14.7109 3.13356 14.1106 3.29738 13.4847 3.37692C14.1286 2.99247 14.62 2.38835 14.8511 1.66018C14.2507 2.01811 13.5879 2.27093 12.8815 2.41202C12.3115 1.80506 11.499 1.42914 10.6127 1.42914C8.89317 1.42914 7.50879 2.82487 7.50879 4.53593C7.50879 4.78212 7.52963 5.01885 7.58076 5.24421C4.99856 5.11827 2.71368 3.88067 1.17875 1.99539C0.910777 2.46032 0.753592 2.99247 0.753592 3.56535C0.753592 4.64103 1.30753 5.59456 2.13323 6.14661C1.63421 6.13714 1.14466 5.99226 0.729919 5.76406C0.729919 5.77353 0.729919 5.78584 0.729919 5.79815C0.729919 7.30751 1.80655 8.56121 3.21838 8.85001C2.96556 8.91914 2.69001 8.95228 2.40404 8.95228C2.20519 8.95228 2.00445 8.94092 1.81602 8.89925C2.21845 10.1293 3.36041 11.0336 4.71827 11.0629C3.66153 11.8896 2.31977 12.3876 0.86722 12.3876C0.612503 12.3876 0.368202 12.3763 0.123901 12.345C1.49975 13.2323 3.13032 13.7389 4.88872 13.7389C10.6042 13.7389 13.729 9.00436 13.729 4.90048C13.729 4.76318 13.7243 4.63062 13.7176 4.499C14.3341 4.06153 14.852 3.51516 15.2743 2.88642Z" fill="#F4F4FD"/>
</g>
<defs>
<clipPath id="clip0_826936_58">
<rect width="15.1504" height="15.1504" fill="white" transform="translate(0.123901 0.00872803)"/>
</clipPath>
</defs>
</svg>
